inDegrees=yes
name=ik_lifting_orientations
DataType=double
version=3
OpenSimVersion=4.5-2024-01-10-34fd6af
endheader
time	pelvis_tilt	pelvis_list	pelvis_rotation	pelvis_tx	pelvis_ty	pelvis_tz	hip_flexion_r	hip_adduction_r	hip_rotation_r	knee_angle_r	knee_angle_r_beta	ankle_angle_r	subtalar_angle_r	mtp_angle_r	hip_flexion_l	hip_adduction_l	hip_rotation_l	knee_angle_l	knee_angle_l_beta	ankle_angle_l	subtalar_angle_l	mtp_angle_l	lumbar_extension	lumbar_bending	lumbar_rotation	arm_flex_r	arm_add_r	arm_rot_r	elbow_flex_r	pro_sup_r	wrist_flex_r	wrist_dev_r	arm_flex_l	arm_add_l	arm_rot_l	elbow_flex_l	pro_sup_l	wrist_flex_l	wrist_dev_l
0.02	0.002522873989475043	-0.0004097122997276966	-90.29761162560357	0	0.9400000003403366	0	44.48730416315633	-10.85268800380569	0	59.01556043807932	1.030015839554191	-5.106317444601764	0	0	44.48730416315633	-10.85268800380569	0	59.01556043807932	1.030015839554191	-5.106317444601764	0	0	-0.003962542828674569	-0.003402915497686086	0.002549106046916137	-0.2363449529316584	-0.05697345292590184	-0.007348593635908154	0.5000211095256589	-7.88644171925291	0	0	0	-9.079345582525578	0	78.49261148318676	7.886231498579622	0	0
0.03	0.001355098395517888	-0.01111678425833425	-90.28776138198558	0	0.9400000003403366	0	44.5139944272892	-10.73308343622953	0	59.05663822201322	1.030732782133261	-5.088711380073101	0	0	44.5139944272892	-10.73308343622953	0	59.05663822201322	1.030732782133261	-5.088711380073101	0	0	-0.01008608499910354	0.0006230168430353669	0.0005447905426490097	-0.2385450463317001	-0.05575479837531602	-0.01457054142012352	0.5003999206195672	-7.589277749275468	0	0	0	-9.246330845365105	0	78.31054238797263	7.589067526511529	0	0
0.04	-0.0002558914777709829	5.335915896169568e-05	-90.29657242469948	0	0.9400000003403366	0	44.52856625481936	-10.667171168335	0	59.07908307356407	1.031124518692944	-5.078901391301363	0	0	44.52856625481936	-10.667171168335	0	59.07908307356407	1.031124518692944	-5.078901391301363	0	0	-0.002098014683862821	0.000139319609533904	0.0007533044600576045	-0.2333883706816127	-0.05459061696221422	-0.006083333891975545	0.4898243446996062	-7.426852803169417	0	0	0	-9.337693171617344	0	78.21113826631533	7.426642579262779	0	0
0.05	-0.000279844708226506	0.0007639476534053914	-90.29669151559358	0	0.9400000003403366	0	44.55264284565342	-10.57563602688797	0	59.11679908594836	1.031782787289773	-5.066124016354338	0	0	44.55264284565342	-10.57563602688797	0	59.11679908594836	1.031782787289773	-5.066124016354338	0	0	-0.0004551402424216025	0.001029576021811306	0.0001485211460483903	-0.2340404258192497	-0.05593314030512273	-0.004931323406786374	0.4899254586335614	-7.152317193681291	0	0	0	-9.494501043169384	0	78.0469552688544	7.152106967847189	0	0
0.06	-8.028332817663532e-06	0.0006719916635234562	-90.29753853870149	0	0.9400000003403366	0	44.57451579221848	-10.50045114588021	0	59.15144489932128	1.032387470805162	-5.055954057044412	0	0	44.57451579221848	-10.50045114588021	0	59.15144489932128	1.032387470805162	-5.055954057044412	0	0	-0.0004227542893544499	0.0008657705374449713	0.0004966065067801143	-0.2343088744361121	-0.0562130007449636	-0.004320957068565652	0.4900668873022854	-6.899132722483695	0	0	0	-9.640604011318153	0	77.89782834219606	6.898922494874161	0	0
0.07000000000000001	-0.0008259090050411125	3.48579223090833e-05	-90.29715260372549	0	0.9400000003403366	0	44.5986511200618	-10.42333841556439	0	59.19000581031581	1.033060485664585	-5.04573137904769	0	0	44.5986511200618	-10.42333841556439	0	59.19000581031581	1.033060485664585	-5.04573137904769	0	0	-0.001291499972458941	0.0006262874282133373	0.0002806140744562284	-0.2334626187843616	-0.05547714180177302	-0.003512539561674081	0.4892171597267163	-6.616451824804212	0	0	0	-9.805048384282863	0	77.7332979568119	6.616241595214082	0	0
0.08	0.004338038061607208	-0.002845852656000125	-90.29355878583603	0	0.9400000003403366	0	44.61969713813906	-10.36234879989394	0	59.22399072651181	1.03365363434822	-5.037894810612297	0	0	44.61969713813906	-10.36234879989394	0	59.22399072651181	1.03365363434822	-5.037894810612297	0	0	-0.008370882325228436	0.0007664228521012139	-0.001912517618634821	-0.4622552061262517	-0.1142883985453739	-0.0184398278606319	0.9670235591724243	-6.366378059659341	0	0	0	-9.951943852882053	0	77.5898498266821	6.366167828318862	0	0
0.09	0.0007657935343817619	-0.001427023906567882	-90.29713284589663	0	0.9400000003403366	0	44.62719305370219	-10.33956730457772	0	59.23609384736464	1.033864873656868	-5.034900831433558	0	0	44.62719305370219	-10.33956730457772	0	59.23609384736464	1.033864873656868	-5.034900831433558	0	0	-0.002849592708630383	-0.002007466649163375	0.0009946879585286084	-0.2343122438360214	-0.05382125727576239	-0.005883557322158694	0.4897505995689916	-6.277710708418127	0	0	0	-10.00388632446288	0	77.53875411807643	6.277500476456845	0	0
0.1	0.002450692960670579	-0.004018000215961485	-90.29800717900194	0	0.9400000003403366	0	44.64638238169339	-10.29250303748544	0	59.26761829436067	1.034415079051819	-5.029185762892486	0	0	44.64638238169339	-10.29250303748544	0	59.26761829436067	1.034415079051819	-5.029185762892486	0	0	-0.01024748738850186	-0.001202739132429185	0.0006497494731379672	-0.2298123821316828	-0.05779049236738334	-0.00457134207280803	0.4924576641060505	-6.044242062947407	0	0	0	-10.14319290277837	0	77.40798925549873	6.044031829354359	0	0
0.11	0.493565793194903	-0.6603959023184517	-89.80959660331752	0	0.9400000003403366	0	44.64646626854481	-10.29226619092263	0	59.26775726560511	1.034417504557601	-5.029155075904502	0	0	44.64646626854481	-10.29226619092263	0	59.26775726560511	1.034417504557601	-5.029155075904502	0	0	-0.6576720054816122	-0.4871435323228893	-0.482705991419006	-0.2540029135609825	-0.05812456582937586	-0.003836992092256381	0.5096131213187682	-6.043233009462469	0	0	0	-10.14379185016072	0	77.40741751727325	6.043022775862374	0	0
0.12	0.5019451574102578	-0.6716555355244096	-89.80069376424751	0	0.9400000003403366	0	44.65314538736565	-10.27563692087361	0	59.27873047273852	1.034609023151582	-5.027110162896053	0	0	44.65314538736565	-10.27563692087361	0	59.27873047273852	1.034609023151582	-5.027110162896053	0	0	-0.6750359518463057	-0.4993307878852151	-0.4961416909227578	-0.2341765104484352	-0.05514913736508092	-0.005574138621001579	0.4898302191285695	-5.961954183660236	0	0	0	-10.19230784177166	0	77.36190239239883	5.961743949492065	0	0
0.13	0.5001950964686668	-0.6726355329713026	-89.80156457789573	0	0.9400000003403366	0	44.68335411372875	-10.20785029559717	0	59.32886802690674	1.035484088550714	-5.019090941543446	0	0	44.68335411372875	-10.20785029559717	0	59.32886802690674	1.035484088550714	-5.019090941543446	0	0	-0.6753652109629708	-0.5031270981771331	-0.4949644007891953	-0.3028055969554401	-0.06649703547736317	-0.008869838564606018	0.6302664562630272	-5.589221909833364	0	0	0	-10.4168120270839	0	77.15606768830146	5.589011673062103	0	0
0.14	0.5026056248907621	-0.6706290667722036	-89.79585557835902	0	0.9400000003403366	0	44.69555993470568	-10.18275512533509	0	59.34931657896836	1.035840983111455	-5.016216065226252	0	0	44.69555993470568	-10.18275512533509	0	59.34931657896836	1.035840983111455	-5.016216065226252	0	0	-0.6745503713906813	-0.5003449969856349	-0.4967984138241308	-0.2406727262878251	-0.05555885636778556	-0.01219619527983103	0.5010150394182195	-5.436859588454672	0	0	0	-10.5092710509988	0	77.07290666848147	5.436649350619977	0	0
0.15	0.5035344664739879	-0.6753657108028571	-89.79965803739998	0	0.9400000003403366	0	44.71115167253594	-10.15788168766438	0	59.37606139330852	1.036307768179525	-5.013624185934868	0	0	44.71115167253594	-10.15788168766438	0	59.37606139330852	1.036307768179525	-5.013624185934868	0	0	-0.6836367793053478	-0.5000034293269814	-0.4975938195890907	-0.2293907890394607	-0.05704461865927582	-0.004923607288528204	0.492184490672159	-5.23557904451201	0	0	0	-10.63409912436308	0	76.96670137289799	5.235368805274739	0	0
0.16	0.5012633202174952	-0.6709974884348517	-89.80081964264882	0	0.9400000003403366	0	44.73374143584989	-10.12340155855	0	59.41504958632273	1.036988240517027	-5.010059675061536	0	0	44.73374143584989	-10.12340155855	0	59.41504958632273	1.036988240517027	-5.010059675061536	0	0	-0.6735644075593223	-0.4984297531401997	-0.4957079668617417	-0.2349272884692713	-0.0551798218160808	-0.005359644250130044	0.4896554096546052	-4.941455706636392	0	0	0	-10.81756296803138	0	76.8128335437229	4.941245465350226	0	0
0.17	0.5027361920597058	-0.6709839034616699	-89.80086918080997	0	0.9400000003403366	0	44.75123141067014	-10.10096927854025	0	59.44577777579139	1.037524548596431	-5.007876194245875	0	0	44.75123141067014	-10.10096927854025	0	59.44577777579139	1.037524548596431	-5.007876194245875	0	0	-0.6747929390728872	-0.4997758110466984	-0.4955531479490088	-0.2325183246004995	-0.05549086569037887	-0.004281585651313462	0.4885854327032433	-4.708077832602171	0	0	0	-10.96545881285367	0	76.69371652510644	4.707867589691826	0	0
0.18	0.5142765331352449	-0.6646706297771439	-89.80466541822045	0	0.9400000003403366	0	44.76327869882198	-10.08794448544552	0	59.46731294736278	1.037900408245334	-5.006682354945875	0	0	44.76327869882198	-10.08794448544552	0	59.46731294736278	1.037900408245334	-5.006682354945875	0	0	-0.6702477083842124	-0.5023625056875426	-0.495996698694198	-0.2339240239995298	-0.07292969633700205	-0.004238610926894019	0.4987383897330827	-4.543439463172763	0	0	0	-11.07140556594485	0	76.61167575441526	4.543229219117594	0	0
